<?xml version="1.0" encoding="UTF-8"?>
<svg xmlns="http://www.w3.org/2000/svg" width="829" height="766.6" viewBox="143.82 242.2 722.36 455.59">
  <defs>
    <style>
            .cls-1 {
                fill: #39a845;
            }

            .cls-2 {
                fill: #1f5129;
            }
        </style>
  </defs>
  <path class="cls-1" d="m372,697.73c-16.63-.11-84.12.54-88.6-.84-7.3-2.25-11.94-11.69-13.71-19.12-.88-3.69-2.64-11.07-3.52-14.76-1.44-6.04-4.77-11.51-9.41-15.57-1.07-.94-2.2-1.79-3.4-2.57-3.18-2.07-9.55-6.19-12.74-8.25-6.41-4.14-11.05-10.71-12.81-18.13-.88-3.69-3.16-10.97-3.52-14.75,0,0,0-.01,0-.02-.41-5.72-4.28-10.68-8.38-14.62-1.36-1.31-2.84-2.48-4.43-3.52-.69-.45-2.07-1.34-2.76-1.79-.99-.64-2.97-1.92-3.96-2.56-1.51-.97-4.52-2.93-6.02-3.9-5.2-3.37-9.28-8.31-11.52-14.05-.22-.57-.43-1.14-.62-1.72-.25-.78-.48-1.56-.67-2.36-.3-1.27-.91-3.81-1.21-5.09-.58-2.42-1.73-7.26-2.31-9.68-1.77-7.42-6.4-13.98-12.81-18.13-.84-.55-2.53-1.64-3.37-2.18-.96-.62-2.89-1.87-3.85-2.49-1.38-.89-4.14-2.68-5.52-3.57-.82-.53-1.63-1.11-2.4-1.73-1.1-.87-2.14-1.82-3.12-2.84-3.06-3.19-5.42-7.02-6.82-11.18-.26-.79-.65-1.57-.7-2.4-.04-.63,17.91-150.41,28.72-239.4.57-4.68,4.68-8.13,9.39-7.89,44.75,2.29,134.25,6.87,179,9.17,4.69.24,8.4,4.04,8.53,8.74,2.87,104.49,8.62,313.46,11.57,417.95.14,5.09-3.96,9.28-9.05,9.25Z"></path>
  <path class="cls-2" d="m543.85,260.99c-30.71-3.7-50.48,5.65-74.14,20.14-29.01,17.77-44.31,56.89-44.18,90.92.13,12.97-1.22,19.17,4.24,19.78,2.35.26,17.32-44.5,49.81-71.4,12.93-10.7,27.03-20.8,33.79-11.69,5.94,8.01-6.58,2.4-39.3,50.47-14.77,21.7-34.03,60.49-47,95.03-12.59,33.52-21.83,60.23-28,80.26-10.4,34.29-19.78,61.39-21.45,61.9-2.05.77-7.71-17.59-19.52-63.18-18.36-71.4-26.2-95.93-44.95-140.62-12.84-30.44-29.79-54.84-64.21-92.21-18.88-20.68-45.72-40.45-61.9-45.85-10.53-3.6-11.43-1.8-3.47,7.06,37.5,42.25,59.2,73.59,82.19,118.15,19.39,37.88,32.75,75.51,57.02,161.81,6.16,22.09,19.78,78.34,24.14,100.17,4.88,24.27,10.27,48.03,11.69,51.75.51,1.16,2.44,2.7,4.37,3.21,4.37,1.16,25.43,1.16,29.92,0,6.68-1.93,7.96-7.19,17.21-67.81,6.16-40.97,11.43-65.5,21.96-102.1,17.85-62.41,37.05-107.83,48.41-115.58,6.74-4.6,16.54-3.75,25.24-4.24,33.07-1.88,51.27-16.19,70.49-40.04,14.81-18.39,19.21-44.55,21.26-69.75,2.13-26.14,18.4-50.03,10.4-54.45-8.48-4.68-18.03,23.8-64.04,18.25Z"></path>
  <g>
    <path class="cls-2" d="m482.01,494.44h-5.98c-.66,0-1.15.63-.97,1.27,1.35,4.84,6.14,7.83,12.11,7.83,3.51,0,9.79-2.44,12.56-3.59.66-.27,1.38.21,1.38.93v1.93c0,5.66-3.85,10-15.99,10-10.99,0-21.73-8.69-21.73-22.22,0-14.76,9.02-24.03,21.65-24.03,9.18,0,17.71,6.56,17.71,17.14,0,8.12-6.15,10.74-20.75,10.74Zm2.05-18.7c-5.33,0-9.02,4.35-9.27,9.43l-.02.42c-.03.57.42,1.06,1,1.06h3.86c10.41,0,12.79-1.15,12.79-4.26,0-4.43-3.28-6.64-8.36-6.64Z"></path>
    <path class="cls-2" d="m550.07,499.44c.08,1.8.16,4.18.16,5.66,0,11.07-7.38,20.99-21.65,20.99-9.1,0-15.33-4.43-15.33-9.68v-3.33c0-.75.78-1.23,1.45-.89,2.63,1.35,8.37,3.98,13.07,3.98,7.54,0,11.4-3.44,11.4-9.27v-2.91c0-.91-1.1-1.34-1.72-.68-1.95,2.06-5.3,3.67-9.68,3.67-10.74,0-18.37-7.46-18.37-17.88,0-12.46,8.2-22.55,22.47-22.55,10.99,0,18.04,8.04,18.04,19.35v7.54c0,1.48.08,4.02.16,5.99Zm-29.36-11.73c0,5.74,3.53,10,8.77,10s9.43-4.1,9.43-11.15-3.44-10.25-8.28-10.25c-5.66,0-9.92,4.76-9.92,11.4Z"></path>
    <path class="cls-2" d="m578.85,512.56h-2.21c-10.5,0-17.71-5.9-17.71-14.02s5.74-13.86,21.98-13.86h3c.51,0,.95-.38,1-.9.22-2.22-.18-7.8-9.66-7.8-5.63,0-10.53,2.55-12.9,4.04-.67.42-1.53-.07-1.53-.86v-1.62c0-4.92,4.43-10.82,16.07-10.82,9.84,0,18.7,4.59,18.7,19.84v10.17c0,9.35-6.89,15.83-16.73,15.83Zm5.99-19.01c0-.55-.45-1-1-1h-2.94c-8.36,0-10.74,1.97-10.74,5.58s2.79,5.49,7.63,5.49,7.05-2.3,7.05-6.81v-3.26Z"></path>
    <path class="cls-2" d="m640.27,511.82c-4.92,0-8.04-3.12-8.04-7.22v-17.55c0-7.46-3.28-10.74-8.94-10.74-4.76,0-8.04,3.61-8.04,9.92v24.58c0,.55-.45,1-1,1h-2.28c-4.67,0-7.71-3.12-7.71-7.22v-19.11c0-9.35,6.15-18.94,19.93-18.94,10.41,0,19.02,6.97,19.02,19.52v24.75c0,.55-.45,1-1,1h-1.95Z"></path>
    <path class="cls-2" d="m667.25,512.81c-8.12,0-14.19-4.18-14.19-8.69v-3.43c0-.72.75-1.21,1.41-.91,2.62,1.18,8.35,3.53,12.29,3.53,5.41,0,8.04-1.56,8.04-4.84,0-2.54-1.56-3.77-9.18-4.84-9.35-1.31-13.86-5-13.86-11.73,0-8.28,7.46-15.33,18.78-15.33,10,0,14.1,5.17,14.1,9.43v2.58c0,.73-.76,1.22-1.42.91-2.49-1.17-7.75-3.4-11.62-3.4-6.72,0-8.86,2.05-8.86,4.92,0,2.21,1.31,3.12,8.86,4.35,9.18,1.48,14.1,5.49,14.1,12.55,0,9.35-6.56,14.92-18.45,14.92Z"></path>
    <path class="cls-2" d="m755.31,512.89c-2.46,0-5.41-.49-8.28-3.28l-2.15-2.09c-.39-.38-1-.38-1.39,0-2.46,2.43-6.89,5.29-14.58,5.29-12.38,0-18.78-6.97-18.78-16.32,0-6.81,5.41-12.63,10.91-15.74-2.71-3.12-5.25-7.05-5.25-10.82,0-7.38,5.58-14.43,16.24-14.43,8.36,0,14.1,4.92,14.1,12.96,0,5.58-4.76,10.66-11.89,14.68,2.18,2.79,6.3,7.65,9.31,10.71.42.43,1.12.39,1.49-.09,2.42-3.12,4.57-8.05,4.97-12.55.05-.53.47-.94,1-.94h1.27c2.46,0,4.59,1.56,4.59,5.74s-3.4,10.08-6.13,13.89c-.29.41-.24.97.12,1.31l1,.95c3.29,3.14,5.53,4.13,7.95,4.43.53.06.91.54.87,1.07-.24,3.45-1.85,5.24-5.38,5.24Zm-28.57-25.01c-.32-.43-.92-.51-1.36-.21-2.49,1.71-4.75,4.42-4.75,7.68,0,6.4,3.53,8.77,9.68,8.77,2.49,0,5.35-.93,7.3-2.46.47-.37.5-1.06.08-1.48-3.09-3.1-8.33-8.83-10.94-12.3Zm4.79-24.43c-3.69,0-5.66,2.05-5.66,5.9,0,2.72,1.71,4.84,3.25,6.97.3.42.88.54,1.32.27,4.29-2.59,6.33-4.88,6.33-7.89,0-3.44-1.97-5.25-5.25-5.25Z"></path>
    <path class="cls-2" d="m482.01,575.97h-5.98c-.66,0-1.15.63-.97,1.27,1.35,4.84,6.14,7.83,12.11,7.83,3.51,0,9.79-2.44,12.56-3.59.66-.27,1.38.21,1.38.93v1.93c0,5.66-3.85,10-15.99,10-10.99,0-21.73-8.69-21.73-22.22,0-14.76,9.02-24.03,21.65-24.03,9.18,0,17.71,6.56,17.71,17.14,0,8.12-6.15,10.74-20.75,10.74Zm2.05-18.7c-5.33,0-9.02,4.35-9.27,9.43l-.02.42c-.03.57.42,1.06,1,1.06h3.86c10.41,0,12.79-1.15,12.79-4.26,0-4.43-3.28-6.64-8.36-6.64Z"></path>
    <path class="cls-2" d="m550.07,580.97c.08,1.8.16,4.18.16,5.66,0,11.07-7.38,20.99-21.65,20.99-9.1,0-15.33-4.43-15.33-9.68v-3.33c0-.75.78-1.23,1.45-.89,2.63,1.35,8.37,3.98,13.07,3.98,7.54,0,11.4-3.44,11.4-9.27v-2.91c0-.91-1.1-1.34-1.72-.68-1.95,2.06-5.3,3.68-9.68,3.68-10.74,0-18.37-7.46-18.37-17.88,0-12.46,8.2-22.55,22.47-22.55,10.99,0,18.04,8.04,18.04,19.35v7.54c0,1.48.08,4.02.16,5.99Zm-29.36-11.73c0,5.74,3.53,10,8.77,10s9.43-4.1,9.43-11.15-3.44-10.25-8.28-10.25c-5.66,0-9.92,4.76-9.92,11.4Z"></path>
    <path class="cls-2" d="m576.64,575.97h-5.98c-.66,0-1.15.63-.97,1.27,1.35,4.84,6.14,7.83,12.11,7.83,3.51,0,9.79-2.44,12.56-3.59.66-.27,1.38.21,1.38.93v1.93c0,5.66-3.85,10-15.99,10-10.99,0-21.73-8.69-21.73-22.22,0-14.76,9.02-24.03,21.65-24.03,9.18,0,17.71,6.56,17.71,17.14,0,8.12-6.15,10.74-20.75,10.74Zm2.05-18.7c-5.33,0-9.02,4.35-9.27,9.43l-.02.42c-.03.57.42,1.06,1,1.06h3.86c10.41,0,12.79-1.15,12.79-4.26,0-4.43-3.28-6.64-8.36-6.64Z"></path>
    <path class="cls-2" d="m609.44,542.1c1.48-1.72,3.44-3.03,5.17-3.03h1.54c.55,0,1,.45,1,1v8c0,.55.45,1,1,1h13.33c.55,0,1,.45,1,1v3.51c0,2.3-2.05,5.25-6.56,5.25h-7.77c-.55,0-1,.45-1,1v16.3c0,5.74,2.54,7.95,6.97,7.95,2.41,0,5.43-.73,7.1-1.19.64-.18,1.26.31,1.26.97v2.6c0,4.51-3.28,7.38-9.68,7.38-11.15,0-16.56-6.07-16.56-16.4v-26.57c0-4.35.82-5.99,3.2-8.77Z"></path>
    <path class="cls-2" d="m657,594.09h-2.21c-10.5,0-17.71-5.9-17.71-14.02s5.74-13.86,21.98-13.86h3c.51,0,.95-.38,1-.9.22-2.22-.18-7.8-9.66-7.8-5.63,0-10.53,2.55-12.9,4.04-.67.42-1.53-.07-1.53-.86v-1.62c0-4.92,4.43-10.82,16.07-10.82,9.84,0,18.7,4.59,18.7,19.84v10.17c0,9.35-6.89,15.83-16.73,15.83Zm5.99-19.01c0-.55-.45-1-1-1h-2.94c-8.36,0-10.74,1.97-10.74,5.58s2.79,5.49,7.63,5.49,7.05-2.3,7.05-6.81v-3.26Z"></path>
    <path class="cls-2" d="m701.11,558.5c-4.92,0-7.63,2.71-7.63,9.43v24.42c0,.55-.45,1-1,1h-2.03c-4.92,0-8.04-2.46-8.04-7.05v-20.34c0-8.86,4.67-17.3,16.32-17.3,6.81,0,9.18,3.85,9.18,7.22v2.59c0,.66-.62,1.14-1.26.96-1.4-.39-3.69-.93-5.54-.93Z"></path>
    <path class="cls-2" d="m722.7,545.69c-4.81,1.38-9.14-2.95-8.05-7.7.53-2.33,2.41-4.21,4.74-4.74,4.75-1.09,9.09,3.24,7.7,8.06-.61,2.1-2.29,3.78-4.39,4.39Zm5.97,48.07c-8.53,0-13.2-4.84-13.2-13.78v-28.93c0-.55.45-1,1-1h2.12c4.92,0,7.87,2.62,7.87,8.2v20.66c0,4.43,1.89,5.82,6.72,5.82h1.05c.55,0,1,.45,1,1v1.38c0,4.76-1.89,6.64-6.56,6.64Z"></path>
    <path class="cls-2" d="m759.33,594.09h-2.21c-10.5,0-17.71-5.9-17.71-14.02s5.74-13.86,21.98-13.86h3c.51,0,.95-.38,1-.9.22-2.22-.18-7.8-9.66-7.8-5.63,0-10.53,2.55-12.9,4.04-.67.42-1.53-.07-1.53-.86v-1.62c0-4.92,4.43-10.82,16.07-10.82,9.84,0,18.7,4.59,18.7,19.84v10.17c0,9.35-6.89,15.83-16.73,15.83Zm5.99-19.01c0-.55-.45-1-1-1h-2.94c-8.36,0-10.74,1.97-10.74,5.58s2.79,5.49,7.63,5.49,7.05-2.3,7.05-6.81v-3.26Z"></path>
    <path class="cls-2" d="m820.75,593.35c-4.92,0-8.04-3.12-8.04-7.22v-17.55c0-7.46-3.28-10.74-8.94-10.74-4.76,0-8.04,3.61-8.04,9.92v24.58c0,.55-.45,1-1,1h-2.28c-4.67,0-7.71-3.12-7.71-7.22v-19.11c0-9.35,6.15-18.94,19.93-18.94,10.41,0,19.02,6.97,19.02,19.52v25.75h-2.95Z"></path>
    <path class="cls-2" d="m847.73,594.34c-8.12,0-14.19-4.18-14.19-8.69v-3.43c0-.72.75-1.21,1.41-.91,2.62,1.18,8.35,3.53,12.29,3.53,5.41,0,8.04-1.56,8.04-4.84,0-2.54-1.56-3.77-9.18-4.84-9.35-1.31-13.86-5-13.86-11.73,0-8.28,7.46-15.33,18.78-15.33,10,0,14.1,5.17,14.1,9.43v2.58c0,.73-.76,1.22-1.42.91-2.49-1.17-7.75-3.4-11.62-3.4-6.72,0-8.86,2.05-8.86,4.92,0,2.21,1.31,3.12,8.86,4.35,9.18,1.48,14.1,5.49,14.1,12.55,0,9.35-6.56,14.92-18.45,14.92Z"></path>
  </g>
  <g>
    <path class="cls-1" d="m461.9,649.2c0-12.9,8.1-20.94,19.8-20.94s19.86,8.04,19.86,20.94-8.22,21.12-19.86,21.12-19.8-8.16-19.8-21.12Zm31.5,0c0-9.72-4.98-14.46-11.64-14.46s-11.64,4.74-11.64,14.46,4.86,14.64,11.58,14.64,11.7-4.8,11.7-14.64Z"></path>
    <path class="cls-1" d="m517.98,648.3h15.52c.55,0,1,.45,1,1v4.36c0,.55-.45,1-1,1h-15.52c-.55,0-1,.45-1,1v12.52c0,.55-.45,1-1,1h-5.92c-.55,0-1-.45-1-1v-37.84c0-.55.45-1,1-1h27.12c.49,0,.91.36.99.85l.66,4.36c.09.6-.38,1.15-.99,1.15h-19.86c-.55,0-1,.45-1,1v10.6c0,.55.45,1,1,1Z"></path>
    <path class="cls-1" d="m581.82,661.26h-17.24c-.41,0-.78.25-.93.63l-2.68,6.67c-.15.38-.52.63-.93.63h-5.91c-.72,0-1.2-.73-.92-1.39l16.13-37.84c.16-.37.52-.61.92-.61h6.83c.4,0,.77.24.92.62l15.61,37.84c.27.66-.21,1.38-.92,1.38h-6.4c-.41,0-.78-.25-.93-.63l-2.62-6.65c-.15-.38-.52-.63-.93-.63Zm-2.19-7.48l-5.38-13.74c-.33-.84-1.52-.85-1.86,0l-5.48,13.74c-.26.66.22,1.37.93,1.37h10.86c.7,0,1.19-.71.93-1.36Z"></path>
    <path class="cls-1" d="m627.34,663.96l-.62,4.36c-.07.49-.49.86-.99.86h-25.31c-.55,0-1-.45-1-1v-37.84c0-.55.45-1,1-1h5.98c.55,0,1,.45,1,1v31.48c0,.55.45,1,1,1h17.95c.61,0,1.08.54.99,1.14Z"></path>
    <path class="cls-1" d="m633.56,630.4c0-.55.45-1,1-1l17.54-.06c9.24,0,13.08,4.5,13.08,10.5,0,3.49-1.67,6.01-4.13,7.58-.7.45-.63,1.47.14,1.78,4,1.63,6.32,4.9,6.32,9.12,0,6.12-4.26,10.86-14.16,10.86h-18.8c-.55,0-1-.45-1-1v-37.78Zm16.86,15.32c4.56,0,6.9-2.04,6.9-4.92s-1.44-5.1-6.72-5.1h-8.06c-.55,0-1,.45-1,1v8.02c0,.55.45,1,1,1h7.88Zm1.98,17.4c4.86,0,6.84-2.4,6.84-5.64s-2.46-5.52-7.14-5.52h-9.56c-.55,0-1,.45-1,1v9.16c0,.55.45,1,1,1h9.86Z"></path>
    <path class="cls-1" d="m705.16,663.96l-.62,4.36c-.07.49-.49.86-.99.86h-28.13c-.55,0-1-.45-1-1v-37.84c0-.55.45-1,1-1h27.66c.49,0,.91.36.99.85l.66,4.36c.09.6-.38,1.15-.99,1.15h-20.34c-.55,0-1,.45-1,1v8.02c0,.55.45,1,1,1h14.62c.55,0,1,.45,1,1v4.24c0,.55-.45,1-1,1h-14.62c-.55,0-1,.45-1,1v8.86c0,.55.45,1,1,1h20.77c.61,0,1.08.54.99,1.14Z"></path>
    <path class="cls-1" d="m737.78,668.75l-9.84-14.2c-.19-.27-.49-.43-.82-.43h-6.04c-.55,0-1,.45-1,1v13.06c0,.55-.45,1-1,1h-5.98c-.55,0-1-.45-1-1v-37.84c0-.55.45-1,1-1h17.06c9.9,0,14.7,4.56,14.7,12.3,0,4.85-2.64,8.91-7.91,10.87-.62.23-.84.99-.45,1.52l10.01,13.56c.49.66.02,1.59-.8,1.59h-7.1c-.33,0-.64-.16-.82-.43Zm-9.06-20.87c5.34,0,8.16-2.16,8.16-6.18s-2.58-6-7.92-6h-8.06c-.55,0-1,.45-1,1v10.18c0,.55.45,1,1,1h7.82Z"></path>
    <path class="cls-1" d="m770.6,636.71v31.48c0,.55-.45,1-1,1h-5.98c-.55,0-1-.45-1-1v-31.48c0-.55-.45-1-1-1h-10.98c-.61,0-1.08-.54-.99-1.15l.66-4.36c.07-.49.49-.85.99-.85h30.56c.49,0,.91.36.99.85l.66,4.36c.09.6-.38,1.15-.99,1.15h-10.92c-.55,0-1,.45-1,1Z"></path>
    <path class="cls-1" d="m808.98,661.26h-17.24c-.41,0-.78.25-.93.63l-2.68,6.67c-.15.38-.52.63-.93.63h-5.91c-.72,0-1.2-.73-.92-1.39l16.13-37.84c.16-.37.52-.61.92-.61h6.83c.4,0,.77.24.92.62l15.61,37.84c.27.66-.21,1.38-.92,1.38h-6.4c-.41,0-.78-.25-.93-.63l-2.62-6.65c-.15-.38-.52-.63-.93-.63Zm-2.19-7.48l-5.38-13.74c-.33-.84-1.52-.85-1.86,0l-5.48,13.74c-.26.66.22,1.37.93,1.37h10.86c.7,0,1.19-.71.93-1.36Z"></path>
  </g>
</svg>
